<svg id="Layer_1" data-name="Layer 1" xmlns="http://www.w3.org/2000/svg" viewBox="0 0 491 85.36"><defs><style>.cls-1{fill:#1b5790;}</style></defs><title>header</title><path class="cls-1" d="M115,29.53a2.63,2.63,0,0,0,.4-1.23c0-.53-.73-3.79-1.46-4.42a2.88,2.88,0,0,0-1.23-.4c-1.1,0-1.1-.24-1.1-.54,0-.49,0-.79.57-.79,1.69,0,3.36.13,5.05.13s3.33-.13,5-.13c.2,0,.3.06.3.76,0,.43-.13.57-1.49.57a1.13,1.13,0,0,0-1.17,1.23c0,1.16,3.1,10.64,3.69,12.77.34,1.13.4,1.37.54,1.37s.2,0,.56-.93c4.46-11.32,4.66-12.51,4.66-13.08,0-1.36-1.2-1.36-1.93-1.36-.53,0-1.23,0-1.23-.64s.2-.69.7-.69c1.4,0,2.66.13,3.82.13.9,0,1.9-.13,3.83-.13.27,0,.37.13.37.66s-.2.53-1.33.67c-.57.06-1.67.2-2.5,2.16-3.19,7.42-6.06,14.64-7.95,19.66-.37,1-.6,1.06-1.17,1.06-.89,0-1.09-1.39-1.19-1.72-1.7-4.86-3-9.42-4.39-13.64-.1-.27-.1-.34-.3-.34s-.2.07-.54.77c-2.66,5.75-5.88,12.41-7.12,14.4-.16.3-.26.53-.73.53-.73,0-.83-.29-1.06-.86-1.43-3.66-5.09-17-6.26-20.39-.1-.3-.53-1.63-1.56-1.63-1.46,0-1.5-.17-1.5-.7s.14-.63.5-.63c1.67,0,3.3.13,5,.13s3.49-.13,5.25-.13c.37,0,.4.36.4.66s0,.67-1.69.67a.88.88,0,0,0-.93,1c0,1.14,3.49,13,3.92,14.11.07.2.13.73.4.73s.2-.16.57-1Z" transform="translate(-1 -2.36)"/><path class="cls-1" d="M140.42,43.4c0,.4.1.84.63.84.9,0,1-.8,1.43-.8.1,0,.53.33.53.46,0,.54-2,2.4-4,2.4a2.74,2.74,0,0,1-2.73-2.06,6.72,6.72,0,0,1-4.59,2.06c-2,0-3.4-1-3.4-3.1a3.69,3.69,0,0,1,2.6-3.32l5.32-2.3V34.52a2.54,2.54,0,0,0-2.66-2.16c-.6,0-2.06.8-2.06,1.4,0,.16.46.83.46,1.19a1.77,1.77,0,0,1-2,1.87,1.52,1.52,0,0,1-1.64-1.53c0-1,.64-1.7,3.13-3.16s2.8-1.5,4.09-1.5c4.93,0,4.93,3.19,4.93,4.12Zm-4.23-4.59c-2.82,1.13-3.82,1.6-3.82,3.7a1.56,1.56,0,0,0,1.56,1.73c.6,0,2.26-.7,2.26-1.37V38.81Z" transform="translate(-1 -2.36)"/><path class="cls-1" d="M155.44,41.24c0,3.56-3.32,5.06-6.42,5.06-1.26,0-2.56-.3-4.69-.3-.1,0-.33-.13-.33-.23,0-1.07-.66-3.36-.66-4,0-.07.13-.1.43-.1a1.35,1.35,0,0,1,.63.13c2,3.09,3,3.13,4.42,3.13a2.32,2.32,0,0,0,2.4-2.4c0-3.29-7.52-1.76-7.52-7.12,0-3.22,3.13-5,6-5a29.38,29.38,0,0,1,4.56.5c.1,0,.2.17.2.26,0,1,.53,3.46.53,3.66s0,.27-.2.27c-.33,0-.8,0-.9-.17-.76-1.43-2-3.19-3.85-3.19A2.29,2.29,0,0,0,147.59,34c0,1.46,1.2,2,5.26,3.46A4,4,0,0,1,155.44,41.24Z" transform="translate(-1 -2.36)"/><path class="cls-1" d="M157.09,25.7c0-2.16-.27-2.46-2.17-2.62-.16,0-.23-.14-.23-.47s.13-.53,1.66-.73a29.48,29.48,0,0,0,4.93-1.26.38.38,0,0,1,.33.33c0,1.63-.3,2-.3,6.88v5.1a10.23,10.23,0,0,1,5.79-2.3A4.07,4.07,0,0,1,171.32,35V43.4c0,1.24.8,1.3,1,1.3,1.23.07,1.73.17,1.73.43,0,.64,0,.77-.63.77-1.33,0-2.73-.07-4.19-.07s-2.83.07-3.83.07c-.3,0-.3-.13-.3-.77,0-.26.17-.36,1.06-.43.17,0,1-.06,1-1.3V36a2.79,2.79,0,0,0-2.8-3,4.83,4.83,0,0,0-2.92,1.23,8.55,8.55,0,0,0-.07,1.4V43.4c0,1.24.8,1.3,1,1.3,1.23.07,1.39.17,1.39.43,0,.64,0,.77-.3.77-1.33,0-2.72-.07-4.19-.07s-2.83.07-4.16.07c-.3,0-.3-.13-.3-.77,0-.26.17-.36,1.4-.43.17,0,1-.06,1-1.3Z" transform="translate(-1 -2.36)"/><path class="cls-1" d="M176,35.69c0-2.07-.47-2.3-2-2.63-.3-.07-.33-.2-.33-.5s.06-.37.16-.4c4.66-.83,6-2.13,6.16-2.13s.4.27.4.47-.17,1.93-.17,5.12V43.4c0,1.24.8,1.3,1,1.3,1.24.07,1.4.17,1.4.43,0,.64,0,.77-.3.77-1.33,0-2.73-.07-4.19-.07s-2.83.07-4.16.07c-.3,0-.3-.13-.3-.77,0-.26.17-.36,1.4-.43.17,0,1-.06,1-1.3ZM178.08,22a2.46,2.46,0,1,1-2.46,2.46A2.46,2.46,0,0,1,178.08,22Z" transform="translate(-1 -2.36)"/><path class="cls-1" d="M185,35.69c0-2.07-.47-2.3-2-2.63-.3-.07-.33-.2-.33-.5s.06-.37.16-.4c4.66-.83,6-2.13,6.16-2.13s.27.13.27.3c0,.83-.1,1.76-.1,2.63,2-1.37,3.82-2.33,5.85-2.33A4.08,4.08,0,0,1,199.24,35V43.4c0,1.24.79,1.3,1,1.3,1.23.07,1.73.17,1.73.43,0,.64,0,.77-.63.77-1.33,0-2.73-.07-4.19-.07s-2.83.07-3.83.07c-.3,0-.3-.13-.3-.77,0-.26.17-.36,1.07-.43.16,0,1-.06,1-1.3V36a2.79,2.79,0,0,0-2.79-3,4.83,4.83,0,0,0-2.93,1.23,8.55,8.55,0,0,0-.07,1.4V43.4c0,1.24.8,1.3,1,1.3,1.23.07,1.39.17,1.39.43,0,.64,0,.77-.3.77-1.33,0-2.72-.07-4.19-.07s-2.82.07-4.16.07c-.3,0-.3-.13-.3-.77,0-.26.17-.36,1.4-.43.17,0,1-.06,1-1.3Z" transform="translate(-1 -2.36)"/><path class="cls-1" d="M211,43.9c3.09,0,5.92.4,5.92,4.19,0,2.3-1.67,6.82-11.08,6.82-2.06,0-4.56-1-4.56-3.16,0-1.89,1.46-3.32,2.83-4.42a2.56,2.56,0,0,1-1.93-2.53c0-1.73,1.5-3.19,2.86-4.09a4.52,4.52,0,0,1-2.89-4.36c0-3.86,3.22-5.92,6.78-5.92a7.59,7.59,0,0,1,4.69,1.43A5.86,5.86,0,0,1,217,30.63c1,0,2.3.56,2.3,1.66a1.32,1.32,0,0,1-1.37,1.5,1.82,1.82,0,0,1-1.46-.8c-.3-.47-.6-.86-.9-.86a1.89,1.89,0,0,0-1.2.49,5.06,5.06,0,0,1,1.17,3.13c0,3.93-3.16,5.66-6.76,5.66a9.42,9.42,0,0,1-2.69-.4c-.47.43-1.23,1.06-1.23,1.76,0,1.13,1.29,1.13,1.79,1.13Zm-5.39,3.73a3,3,0,0,0-1.8,2.79c0,2.37,3.36,2.8,5.12,2.8,2.07,0,5.23-.5,5.23-3.2,0-2.36-2.3-2.39-4.26-2.39Zm.86-11.71c0,1.76.13,4.16,2.46,4.16,2.13,0,2.33-2.66,2.33-4.23s-.13-4.09-2.29-4.09S206.42,34.32,206.42,35.92Z" transform="translate(-1 -2.36)"/><path class="cls-1" d="M230.41,31.39c.13,0,.23.24.23,1s-.07.8-.53.8h-4.93v7.45c0,1.63.14,3.79,2.43,3.79a6.55,6.55,0,0,0,2.53-.76c.2,0,.47.5.47.69s-1.87,2-5,2c-2.89,0-4.69-1.33-4.69-3.69V33.16H219c-.33,0-.33-.2-.33-.54s.06-.39.13-.46a17.92,17.92,0,0,0,5.36-4.59c.06-.1.13-.1.69-.1.3,0,.47,0,.47.33,0,1.17-.13,2.33-.17,3.59Z" transform="translate(-1 -2.36)"/><path class="cls-1" d="M230,38.35c0-6.12,5.56-7.92,8.59-7.92s8.58,1.8,8.58,7.92-5.56,7.95-8.58,7.95S230,44.5,230,38.35Zm12.25,0c0-2.93-.4-6.72-3.66-6.72s-3.66,3.79-3.66,6.75.4,6.72,3.66,6.72S242.21,41.31,242.21,38.35Z" transform="translate(-1 -2.36)"/><path class="cls-1" d="M248.69,35.69c0-2.07-.46-2.3-2-2.63-.3-.07-.34-.2-.34-.5s.07-.37.17-.4c4.66-.83,6-2.13,6.16-2.13s.26.13.26.3c0,.83-.1,1.76-.1,2.63,2-1.37,3.83-2.33,5.86-2.33A4.07,4.07,0,0,1,262.93,35V43.4c0,1.24.8,1.3,1,1.3,1.23.07,1.73.17,1.73.43,0,.64,0,.77-.64.77-1.33,0-2.72-.07-4.19-.07s-2.83.07-3.82.07c-.3,0-.3-.13-.3-.77,0-.26.16-.36,1.06-.43.17,0,1-.06,1-1.3V36a2.8,2.8,0,0,0-2.8-3A4.88,4.88,0,0,0,253,34.22a10,10,0,0,0-.06,1.4V43.4c0,1.24.8,1.3,1,1.3,1.23.07,1.4.17,1.4.43,0,.64,0,.77-.3.77-1.33,0-2.73-.07-4.19-.07s-2.83.07-4.16.07c-.3,0-.3-.13-.3-.77,0-.26.17-.36,1.4-.43.16,0,1-.06,1-1.3Z" transform="translate(-1 -2.36)"/><path class="cls-1" d="M289.74,27.8c0,.33-.39.43-1,.43s-1.13-5.09-5.82-5.09A3.79,3.79,0,0,0,279,27c0,3.32,5.13,4,9,7.05a6.3,6.3,0,0,1,2.46,5.29c0,3.76-3,7-8.82,7-2.26,0-3.82-.43-6.42-.43-.36,0-.63,0-.7-.5-.1-.86-.43-4.29-.43-5.42,0-.17.13-.2.77-.2.4,0,.46.27.66.87,1,2.59,2.8,4.35,5.89,4.35,2.46,0,4.13-1.49,4.13-3.69,0-6.15-10.88-4.79-10.88-12.31,0-4.46,3.36-7.22,7.82-7.22a19.28,19.28,0,0,1,3.45.37c1,.2,1.67.36,1.9.36s.63-.63,1-.63.37.17.4,1.23A33.29,33.29,0,0,0,289.74,27.8Z" transform="translate(-1 -2.36)"/><path class="cls-1" d="M301.79,31.39c.13,0,.23.24.23,1s-.07.8-.53.8h-4.93v7.45c0,1.63.14,3.79,2.43,3.79a6.55,6.55,0,0,0,2.53-.76c.2,0,.47.5.47.69s-1.87,2-5,2c-2.89,0-4.69-1.33-4.69-3.69V33.16h-1.93c-.33,0-.33-.2-.33-.54s.06-.39.13-.46a17.92,17.92,0,0,0,5.36-4.59c.06-.1.13-.1.69-.1.3,0,.47,0,.47.33,0,1.17-.13,2.33-.17,3.59Z" transform="translate(-1 -2.36)"/><path class="cls-1" d="M314,43.4c0,.4.1.84.63.84.9,0,1-.8,1.43-.8.1,0,.53.33.53.46,0,.54-2,2.4-4,2.4a2.74,2.74,0,0,1-2.73-2.06,6.72,6.72,0,0,1-4.59,2.06c-2,0-3.39-1-3.39-3.1a3.68,3.68,0,0,1,2.59-3.32l5.32-2.3V34.52a2.54,2.54,0,0,0-2.66-2.16c-.6,0-2.06.8-2.06,1.4,0,.16.47.83.47,1.19a1.77,1.77,0,0,1-2,1.87,1.51,1.51,0,0,1-1.63-1.53c0-1,.63-1.7,3.12-3.16s2.8-1.5,4.09-1.5c4.93,0,4.93,3.19,4.93,4.12Zm-4.23-4.59c-2.82,1.13-3.82,1.6-3.82,3.7a1.56,1.56,0,0,0,1.56,1.73c.6,0,2.26-.7,2.26-1.37V38.81Z" transform="translate(-1 -2.36)"/><path class="cls-1" d="M327.13,31.39c.13,0,.23.24.23,1s-.07.8-.53.8H321.9v7.45c0,1.63.14,3.79,2.43,3.79a6.55,6.55,0,0,0,2.53-.76c.2,0,.47.5.47.69s-1.87,2-5,2c-2.9,0-4.69-1.33-4.69-3.69V33.16h-1.93c-.33,0-.33-.2-.33-.54s.06-.39.13-.46a17.72,17.72,0,0,0,5.35-4.59c.07-.1.14-.1.7-.1.3,0,.47,0,.47.33,0,1.17-.13,2.33-.17,3.59Z" transform="translate(-1 -2.36)"/><path class="cls-1" d="M331.15,37c0,.4-.07.6-.07.74,0,2.72,1.5,5.92,5.43,5.92,3.32,0,4-2.3,4.39-2.3s.66.17.66.5-1.66,4.46-7.05,4.46c-6.35,0-7.85-5.19-7.85-7.82,0-4.36,3.09-8,7.58-8,5.56,0,7.16,4.12,7.16,5.82,0,.7-.14.73-.7.73Zm2.76-1.19c2.63,0,2.93-.2,2.93-1.2,0-1.7-.93-3-2.69-3-2,0-2.9,2.36-2.9,4.06C332.15,35.75,333,35.79,333.91,35.79Z" transform="translate(-1 -2.36)"/><path class="cls-1" d="M121,55.55c.77,0,1.13-.93,1.67-.93.36,0,.5.16.56.49.1.57,1.63,5.53,1.63,5.93s-.43.3-.63.3c-.43,0-.5,0-.73-.4-1.87-3-3-4.06-7.65-4.06-2.17,0-2.17,0-2.17,2.29V72.58c0,4.86.07,5.29,2.47,5.29,1,0,1.13.07,1.13.9,0,.3-.1.43-.44.43-1.93,0-3.82-.07-5.75-.07s-3.83.07-5.76.07c-.33,0-.43-.13-.43-.43,0-.83.1-.9,1.13-.9,2.4,0,2.46-.43,2.46-5.29V59.17c0-2.26,0-2.29-2.36-2.29-4.16,0-5.62,1.3-7.48,4.06-.24.36-.37.46-.77.46s-.6-.06-.6-.43c0-.57,1.57-4.82,1.63-5.52,0-.37.2-.7.67-.7s.76.8,2.43.8Z" transform="translate(-1 -2.36)"/><path class="cls-1" d="M121.13,69c0-2.06-.46-2.29-2-2.62-.3-.07-.33-.2-.33-.5s.06-.37.16-.4c4.66-.83,6-2.13,6.16-2.13s.26.13.26.3c0,.83-.1,1.76-.1,3,1.33-1.27,2.93-2.86,4.89-2.86a2.32,2.32,0,0,1,2.4,2.16A2,2,0,0,1,130.65,68c-1.93,0-1.93-1.53-3.1-1.53-1,0-2,1.3-2.19,1.66v8.55c0,1.23.8,1.3,1,1.3,1.73.07,2,.17,2,.43,0,.63-.07.77-.87.77-1.33,0-2.73-.07-4.19-.07s-2.83.07-4.16.07c-.3,0-.3-.14-.3-.77,0-.26.17-.36,1.4-.43.17,0,1-.07,1-1.3Z" transform="translate(-1 -2.36)"/><path class="cls-1" d="M144.32,76.67c0,.4.1.83.63.83.9,0,1-.79,1.43-.79.1,0,.54.33.54.46,0,.53-2,2.4-4,2.4a2.76,2.76,0,0,1-2.73-2.07,6.67,6.67,0,0,1-4.59,2.07c-2,0-3.39-1-3.39-3.1a3.68,3.68,0,0,1,2.59-3.32l5.33-2.3V67.79a2.54,2.54,0,0,0-2.66-2.16c-.6,0-2.07.8-2.07,1.39,0,.17.47.84.47,1.2a1.77,1.77,0,0,1-2,1.87,1.51,1.51,0,0,1-1.63-1.54c0-1,.63-1.69,3.13-3.16s2.79-1.49,4.09-1.49c4.92,0,4.92,3.19,4.92,4.12Zm-4.22-4.59c-2.83,1.13-3.83,1.6-3.83,3.69a1.56,1.56,0,0,0,1.56,1.73c.6,0,2.27-.69,2.27-1.36V72.08Z" transform="translate(-1 -2.36)"/><path class="cls-1" d="M148.61,69c0-2.06-.46-2.29-2-2.62-.3-.07-.34-.2-.34-.5s.07-.37.17-.4c4.66-.83,6-2.13,6.16-2.13s.26.13.26.3c0,.83-.1,1.76-.1,2.63,2-1.37,3.83-2.33,5.86-2.33a4.07,4.07,0,0,1,4.22,4.32v8.45c0,1.23.8,1.3,1,1.3,1.23.07,1.73.17,1.73.43,0,.63,0,.77-.63.77-1.34,0-2.73-.07-4.2-.07s-2.82.07-3.82.07c-.3,0-.3-.14-.3-.77,0-.26.16-.36,1.06-.43.17,0,1-.07,1-1.3V69.29a2.79,2.79,0,0,0-2.8-3,4.82,4.82,0,0,0-2.93,1.23,10,10,0,0,0-.06,1.4v7.78c0,1.23.8,1.3,1,1.3,1.23.07,1.4.17,1.4.43,0,.63,0,.77-.3.77-1.33,0-2.73-.07-4.19-.07s-2.83.07-4.16.07c-.3,0-.3-.14-.3-.77,0-.26.17-.36,1.4-.43.17,0,1-.07,1-1.3Z" transform="translate(-1 -2.36)"/><path class="cls-1" d="M177.56,74.51c0,3.56-3.33,5.06-6.43,5.06-1.26,0-2.56-.3-4.69-.3-.1,0-.33-.14-.33-.24,0-1.06-.66-3.36-.66-4,0-.07.13-.1.43-.1a1.35,1.35,0,0,1,.63.13c2,3.09,3,3.13,4.43,3.13a2.32,2.32,0,0,0,2.39-2.4c0-3.29-7.52-1.76-7.52-7.12,0-3.23,3.13-5,6-5a29.38,29.38,0,0,1,4.56.5c.1,0,.2.16.2.26,0,1,.53,3.46.53,3.66s0,.27-.2.27c-.33,0-.8,0-.89-.17-.77-1.43-2-3.19-3.86-3.19a2.29,2.29,0,0,0-2.47,2.23c0,1.46,1.2,2,5.26,3.46A4,4,0,0,1,177.56,74.51Z" transform="translate(-1 -2.36)"/><path class="cls-1" d="M179.88,68.16c0-1.34-.43-1.5-2.19-1.8-.07,0-.07-.2-.07-.43s0-.44.4-.54a38.54,38.54,0,0,0,5.89-2.09c.17,0,.3.13.3.2,0,.83-.13,1.63-.13,2.46,1.36-1,2.82-2.06,4.59-2.06,6.52,0,6.88,6.29,6.88,7.38,0,6.66-4.09,8.29-7.42,8.29a15.75,15.75,0,0,1-4-.5v6.15c0,1.23.8,1.3,1,1.3,1.23.07,1.73.17,1.9.43,0,.63,0,.77-.47.77-1.66,0-3.06-.07-4.52-.07s-2.83.07-4.16.07c-.3,0-.3-.14-.3-.77,0-.26.17-.36,1.4-.43.17,0,1-.07,1-1.3Zm4.23,7c0,2.19,1.16,3.16,3.16,3.16,2.63,0,3.36-2.56,3.36-4.83,0-3,0-7.65-3.53-7.65-1.76,0-3,1.07-3,3.26Z" transform="translate(-1 -2.36)"/><path class="cls-1" d="M196.71,71.61c0-6.12,5.55-7.91,8.58-7.91s8.58,1.79,8.58,7.91-5.55,8-8.58,8S196.71,77.77,196.71,71.61Zm12.24,0c0-2.92-.4-6.72-3.66-6.72s-3.66,3.8-3.66,6.76.4,6.72,3.66,6.72S209,74.58,209,71.61Z" transform="translate(-1 -2.36)"/><path class="cls-1" d="M215.8,69c0-2.06-.46-2.29-2-2.62-.3-.07-.34-.2-.34-.5s.07-.37.17-.4c4.66-.83,6-2.13,6.15-2.13s.27.13.27.3c0,.83-.1,1.76-.1,3,1.33-1.27,2.93-2.86,4.89-2.86a2.32,2.32,0,0,1,2.4,2.16A2,2,0,0,1,225.32,68c-1.93,0-1.93-1.53-3.1-1.53-1,0-2,1.3-2.19,1.66v8.55c0,1.23.8,1.3,1,1.3,1.73.07,2,.17,2,.43,0,.63-.06.77-.86.77-1.33,0-2.73-.07-4.19-.07s-2.83.07-4.16.07c-.3,0-.3-.14-.3-.77,0-.26.17-.36,1.4-.43.16,0,1-.07,1-1.3Z" transform="translate(-1 -2.36)"/><path class="cls-1" d="M239,64.66c.13,0,.23.23.23,1s-.07.8-.53.8h-4.93v7.45c0,1.63.13,3.79,2.43,3.79a6.55,6.55,0,0,0,2.53-.76c.2,0,.46.49.46.69s-1.86,2-4.95,2c-2.9,0-4.69-1.33-4.69-3.7V66.43h-1.93c-.34,0-.34-.2-.34-.54s.07-.4.14-.46a17.87,17.87,0,0,0,5.35-4.59c.07-.1.14-.1.7-.1.3,0,.47,0,.47.33,0,1.16-.14,2.33-.17,3.59Z" transform="translate(-1 -2.36)"/><path class="cls-1" d="M251.15,76.67c0,.4.1.83.64.83.89,0,1-.79,1.43-.79.1,0,.53.33.53.46,0,.53-2,2.4-4,2.4A2.74,2.74,0,0,1,247,77.5a6.71,6.71,0,0,1-4.6,2.07c-2,0-3.39-1-3.39-3.1a3.68,3.68,0,0,1,2.6-3.32l5.32-2.3V67.79a2.54,2.54,0,0,0-2.66-2.16c-.6,0-2.07.8-2.07,1.39,0,.17.47.84.47,1.2,0,1.23-.76,1.87-2,1.87A1.52,1.52,0,0,1,239,68.55c0-1,.63-1.69,3.13-3.16s2.79-1.49,4.09-1.49c4.92,0,4.92,3.19,4.92,4.12Zm-4.22-4.59c-2.83,1.13-3.83,1.6-3.83,3.69a1.57,1.57,0,0,0,1.57,1.73c.6,0,2.26-.69,2.26-1.36V72.08Z" transform="translate(-1 -2.36)"/><path class="cls-1" d="M264,64.66c.13,0,.23.23.23,1s-.06.8-.53.8h-4.92v7.45c0,1.63.13,3.79,2.43,3.79a6.48,6.48,0,0,0,2.52-.76c.21,0,.47.49.47.69s-1.86,2-5,2c-2.89,0-4.69-1.33-4.69-3.7V66.43h-1.93c-.33,0-.33-.2-.33-.54s.07-.4.13-.46a17.93,17.93,0,0,0,5.36-4.59c.07-.1.13-.1.7-.1.3,0,.46,0,.46.33,0,1.16-.13,2.33-.16,3.59Z" transform="translate(-1 -2.36)"/><path class="cls-1" d="M266.32,69c0-2.06-.46-2.29-2-2.62-.3-.07-.34-.2-.34-.5s.07-.37.17-.4c4.66-.83,6-2.13,6.16-2.13a.49.49,0,0,1,.4.46c0,.27-.17,1.93-.17,5.13v7.78c0,1.23.8,1.3,1,1.3,1.23.07,1.4.17,1.4.43,0,.63,0,.77-.3.77-1.33,0-2.73-.07-4.19-.07s-2.83.07-4.16.07c-.3,0-.3-.14-.3-.77,0-.26.17-.36,1.4-.43.17,0,1-.07,1-1.3Zm2.07-13.7a2.46,2.46,0,1,1-2.47,2.46A2.46,2.46,0,0,1,268.39,55.25Z" transform="translate(-1 -2.36)"/><path class="cls-1" d="M272.18,71.61c0-6.12,5.55-7.91,8.58-7.91s8.59,1.79,8.59,7.91-5.56,8-8.59,8S272.18,77.77,272.18,71.61Zm12.24,0c0-2.92-.4-6.72-3.66-6.72s-3.66,3.8-3.66,6.76.4,6.72,3.66,6.72S284.42,74.58,284.42,71.61Z" transform="translate(-1 -2.36)"/><path class="cls-1" d="M290.91,69c0-2.06-.47-2.29-2-2.62-.3-.07-.33-.2-.33-.5s.07-.37.17-.4c4.65-.83,6-2.13,6.15-2.13s.27.13.27.3c0,.83-.1,1.76-.1,2.63,2-1.37,3.82-2.33,5.85-2.33a4.08,4.08,0,0,1,4.23,4.32v8.45c0,1.23.8,1.3,1,1.3,1.23.07,1.73.17,1.73.43,0,.63,0,.77-.63.77-1.33,0-2.73-.07-4.19-.07s-2.83.07-3.83.07c-.3,0-.3-.14-.3-.77,0-.26.17-.36,1.07-.43.16,0,1-.07,1-1.3V69.29a2.79,2.79,0,0,0-2.79-3,4.82,4.82,0,0,0-2.93,1.23,8.55,8.55,0,0,0-.07,1.4v7.78c0,1.23.8,1.3,1,1.3,1.23.07,1.39.17,1.39.43,0,.63,0,.77-.29.77-1.34,0-2.73-.07-4.2-.07s-2.82.07-4.15.07c-.31,0-.31-.14-.31-.77,0-.26.17-.36,1.4-.43.17,0,1-.07,1-1.3Z" transform="translate(-1 -2.36)"/><path class="cls-1" d="M339.45,61.8c0,.17-.67.33-.84.33s-.33-.06-.39-.2c-1.2-3.22-3.5-5.52-7.12-5.52-6.16,0-9.05,5.86-9.05,11.28,0,9.91,8.15,10.61,8.95,10.61,5.28,0,6.55-3.32,7.61-5.29a.36.36,0,0,1,.3-.26c.9,0,1,.1,1,.33,0,.8-.5,3.59-.6,4.72,0,.37-.27.47-.6.54a41.11,41.11,0,0,1-8.22,1.29c-8.21,0-14.4-4-14.4-12.77,0-4.33,2.79-11.78,13.74-11.78,4.36,0,6.75,1.27,7.42,1.27s.86-.64,1.16-.64.47.2.53,1C339.11,58.51,339.45,60.7,339.45,61.8Z" transform="translate(-1 -2.36)"/><path class="cls-1" d="M340.78,71.61c0-6.12,5.55-7.91,8.58-7.91s8.58,1.79,8.58,7.91-5.55,8-8.58,8S340.78,77.77,340.78,71.61Zm12.24,0c0-2.92-.4-6.72-3.66-6.72s-3.66,3.8-3.66,6.76.4,6.72,3.66,6.72S353,74.58,353,71.61Z" transform="translate(-1 -2.36)"/><path class="cls-1" d="M364.43,76.67c0,1.23.8,1.3,1,1.3,1.23.07,1.4.17,1.4.43,0,.63,0,.77-.3.77-1.33,0-2.73-.07-4.19-.07s-2.83.07-4.16.07c-.3,0-.3-.14-.3-.77,0-.26.17-.36,1.4-.43.17,0,1-.07,1-1.3V69c0-2.06-.46-2.29-2-2.62-.3-.07-.33-.2-.33-.5s.06-.37.16-.4c4.66-.83,6-2.13,6.16-2.13s.26.13.26.3c0,.83-.1,1.76-.1,2.63a10.79,10.79,0,0,1,6.12-2.33,3.79,3.79,0,0,1,3.7,2.36A10,10,0,0,1,380,63.9a4.08,4.08,0,0,1,4.23,4.32v8.45c0,1.23.8,1.3,1,1.3,1.23.07,1.73.17,1.73.43,0,.63,0,.77-.63.77-1.33,0-2.73-.07-4.19-.07s-2.83.07-3.83.07c-.3,0-.3-.14-.3-.77,0-.26.17-.36,1.07-.43.16,0,1-.07,1-1.3V69.29a2.79,2.79,0,0,0-2.79-3,4.19,4.19,0,0,0-2.83,1.2,3.31,3.31,0,0,0-.07.76v8.45c0,1.23.8,1.3,1,1.3,1.23.07,1.4.17,1.4.43,0,.63,0,.77-.3.77-1.33,0-2.73-.07-4.2-.07s-2.82.07-3.82.07c-.3,0-.3-.14-.3-.77,0-.26.17-.36,1.06-.43.17,0,1-.07,1-1.3V69.29a2.79,2.79,0,0,0-2.8-3,4.25,4.25,0,0,0-2.83,1.2,3.85,3.85,0,0,0-.06.76Z" transform="translate(-1 -2.36)"/><path class="cls-1" d="M392.84,76.67c0,1.23.8,1.3,1,1.3,1.24.07,1.4.17,1.4.43,0,.63,0,.77-.3.77-1.33,0-2.73-.07-4.19-.07s-2.83.07-4.16.07c-.3,0-.3-.14-.3-.77,0-.26.17-.36,1.4-.43.17,0,1-.07,1-1.3V69c0-2.06-.46-2.29-2-2.62-.3-.07-.33-.2-.33-.5s.06-.37.16-.4c4.66-.83,6-2.13,6.16-2.13s.26.13.26.3c0,.83-.1,1.76-.1,2.63a10.79,10.79,0,0,1,6.12-2.33,3.79,3.79,0,0,1,3.7,2.36,10,10,0,0,1,5.85-2.36,4.08,4.08,0,0,1,4.23,4.32v8.45c0,1.23.8,1.3,1,1.3,1.23.07,1.73.17,1.73.43,0,.63,0,.77-.63.77-1.33,0-2.73-.07-4.19-.07s-2.83.07-3.83.07c-.3,0-.3-.14-.3-.77,0-.26.17-.36,1.07-.43.16,0,1-.07,1-1.3V69.29a2.79,2.79,0,0,0-2.79-3,4.19,4.19,0,0,0-2.83,1.2,3.31,3.31,0,0,0-.07.76v8.45c0,1.23.8,1.3,1,1.3,1.23.07,1.4.17,1.4.43,0,.63,0,.77-.3.77-1.33,0-2.73-.07-4.2-.07s-2.82.07-3.82.07c-.3,0-.3-.14-.3-.77,0-.26.17-.36,1.06-.43.17,0,1-.07,1-1.3V69.29a2.79,2.79,0,0,0-2.8-3,4.18,4.18,0,0,0-2.82,1.2,3.31,3.31,0,0,0-.07.76Z" transform="translate(-1 -2.36)"/><path class="cls-1" d="M417.06,69c0-2.06-.47-2.29-2-2.62-.3-.07-.33-.2-.33-.5s.07-.37.17-.4c4.65-.83,6-2.13,6.15-2.13a.49.49,0,0,1,.4.46c0,.27-.17,1.93-.17,5.13v7.78c0,1.23.8,1.3,1,1.3,1.23.07,1.4.17,1.4.43,0,.63,0,.77-.3.77-1.33,0-2.73-.07-4.2-.07s-2.82.07-4.15.07c-.3,0-.3-.14-.3-.77,0-.26.16-.36,1.39-.43.17,0,1-.07,1-1.3Zm2.06-13.7a2.46,2.46,0,1,1-2.46,2.46A2.45,2.45,0,0,1,419.12,55.25Z" transform="translate(-1 -2.36)"/><path class="cls-1" d="M435.46,74.51c0,3.56-3.33,5.06-6.42,5.06-1.27,0-2.57-.3-4.7-.3-.1,0-.33-.14-.33-.24,0-1.06-.66-3.36-.66-4,0-.07.13-.1.43-.1a1.35,1.35,0,0,1,.63.13c2,3.09,3,3.13,4.43,3.13a2.31,2.31,0,0,0,2.39-2.4c0-3.29-7.52-1.76-7.52-7.12,0-3.23,3.13-5,6-5a29.38,29.38,0,0,1,4.56.5c.1,0,.2.16.2.26,0,1,.53,3.46.53,3.66s0,.27-.2.27c-.33,0-.79,0-.89-.17-.77-1.43-2-3.19-3.86-3.19a2.28,2.28,0,0,0-2.46,2.23c0,1.46,1.19,2,5.25,3.46A4,4,0,0,1,435.46,74.51Z" transform="translate(-1 -2.36)"/><path class="cls-1" d="M448.13,74.51c0,3.56-3.33,5.06-6.42,5.06-1.26,0-2.56-.3-4.69-.3-.1,0-.33-.14-.33-.24,0-1.06-.67-3.36-.67-4,0-.07.14-.1.44-.1a1.35,1.35,0,0,1,.63.13c2,3.09,3,3.13,4.42,3.13a2.32,2.32,0,0,0,2.4-2.4c0-3.29-7.52-1.76-7.52-7.12,0-3.23,3.12-5,6-5a29.38,29.38,0,0,1,4.56.5c.1,0,.2.16.2.26,0,1,.53,3.46.53,3.66s0,.27-.2.27c-.33,0-.8,0-.9-.17-.76-1.43-2-3.19-3.86-3.19a2.29,2.29,0,0,0-2.46,2.23c0,1.46,1.2,2,5.26,3.46A4,4,0,0,1,448.13,74.51Z" transform="translate(-1 -2.36)"/><path class="cls-1" d="M450.48,69c0-2.06-.46-2.29-2-2.62-.3-.07-.34-.2-.34-.5s.07-.37.17-.4c4.66-.83,6-2.13,6.15-2.13a.49.49,0,0,1,.4.46c0,.27-.16,1.93-.16,5.13v7.78c0,1.23.8,1.3,1,1.3,1.23.07,1.4.17,1.4.43,0,.63,0,.77-.3.77-1.33,0-2.73-.07-4.19-.07s-2.83.07-4.16.07c-.3,0-.3-.14-.3-.77,0-.26.17-.36,1.4-.43.16,0,1-.07,1-1.3Zm2.06-13.7a2.46,2.46,0,1,1-2.46,2.46A2.46,2.46,0,0,1,452.54,55.25Z" transform="translate(-1 -2.36)"/><path class="cls-1" d="M456.34,71.61c0-6.12,5.55-7.91,8.58-7.91s8.58,1.79,8.58,7.91-5.55,8-8.58,8S456.34,77.77,456.34,71.61Zm12.24,0c0-2.92-.4-6.72-3.66-6.72s-3.66,3.8-3.66,6.76.4,6.72,3.66,6.72S468.58,74.58,468.58,71.61Z" transform="translate(-1 -2.36)"/><path class="cls-1" d="M475.07,69c0-2.06-.47-2.29-2-2.62-.3-.07-.33-.2-.33-.5s.06-.37.16-.4c4.66-.83,6-2.13,6.16-2.13s.26.13.26.3c0,.83-.09,1.76-.09,2.63,2-1.37,3.82-2.33,5.85-2.33a4.07,4.07,0,0,1,4.22,4.32v8.45c0,1.23.8,1.3,1,1.3,1.23.07,1.73.17,1.73.43,0,.63,0,.77-.63.77-1.33,0-2.73-.07-4.19-.07s-2.83.07-3.83.07c-.3,0-.3-.14-.3-.77,0-.26.17-.36,1.07-.43.16,0,1-.07,1-1.3V69.29a2.79,2.79,0,0,0-2.79-3,4.77,4.77,0,0,0-2.93,1.23,8.55,8.55,0,0,0-.07,1.4v7.78c0,1.23.8,1.3,1,1.3,1.23.07,1.39.17,1.39.43,0,.63,0,.77-.3.77-1.33,0-2.72-.07-4.19-.07s-2.83.07-4.16.07c-.3,0-.3-.14-.3-.77,0-.26.17-.36,1.4-.43.17,0,1-.07,1-1.3Z" transform="translate(-1 -2.36)"/><path class="cls-1" d="M49.23,57.82a27.6,27.6,0,1,0,0-55.2,27.76,27.76,0,0,0-3,.4c11.45,1.27,20.42,13,20.42,27.2S53.76,55.78,49.23,57.82Z" transform="translate(-1 -2.36)"/><path class="cls-1" d="M58.2,47.17A27.6,27.6,0,1,0,15,12.75a28.32,28.32,0,0,0-1.58,2.64c8.13-8.17,22.87-7.89,34,1s12,26,10.74,30.8Z" transform="translate(-1 -2.36)"/><path class="cls-1" d="M55.52,32.91A27.6,27.6,0,1,0,1.7,45.19a28.33,28.33,0,0,0,1.07,2.88c-1.31-11.45,8.09-22.8,22-26S52.51,29,55.52,32.91Z" transform="translate(-1 -2.36)"/><path class="cls-1" d="M43.36,25.94A27.6,27.6,0,1,0,19.41,75.67a28.46,28.46,0,0,0,2.92,1c-9.77-6.11-12.78-20.54-6.6-33.36S38.39,25.82,43.36,25.94Z" transform="translate(-1 -2.36)"/><path class="cls-1" d="M30.22,31.65a27.6,27.6,0,1,0,24,49.73,30,30,0,0,0,2.57-1.69c-10.87,3.83-24-2.81-30.2-15.64s.49-28.6,3.68-32.4Z" transform="translate(-1 -2.36)"/><path class="cls-1" d="M26.53,45.19A27.6,27.6,0,1,0,80.34,57.47a26.36,26.36,0,0,0,.28-3.06c-3.78,10.88-17.17,17-31.05,13.86s-22.06-18.21-23-23.08Z" transform="translate(-1 -2.36)"/><path class="cls-1" d="M34.91,56.89A27.6,27.6,0,0,0,78.06,22.48a26.18,26.18,0,0,0-2.22-2.13c6.15,9.74,2.61,24-8.52,32.92s-28,5.88-32.41,3.62Z" transform="translate(-1 -2.36)"/></svg>